<svg width="32" height="32" viewBox="0 0 32 32" fill="none" xmlns="http://www.w3.org/2000/svg">
<mask id="mask0_305_377" style="mask-type:alpha" maskUnits="userSpaceOnUse" x="0" y="0" width="32" height="32">
<rect width="32" height="32" fill="#C4C4C4"/>
</mask>
<g mask="url(#mask0_305_377)">
<path d="M9.62435 14.5656C11.331 17.9197 14.0807 20.6693 17.4347 22.376L20.0421 19.7686C20.374 19.4367 20.8362 19.3419 21.251 19.4723C22.5784 19.9108 24.0007 20.1478 25.4821 20.1478C25.7965 20.1478 26.0979 20.2727 26.3202 20.495C26.5425 20.7172 26.6673 21.0187 26.6673 21.333V25.4812C26.6673 25.7955 26.5425 26.0969 26.3202 26.3192C26.0979 26.5415 25.7965 26.6663 25.4821 26.6663C20.1385 26.6663 15.0138 24.5436 11.2352 20.7651C7.45673 16.9866 5.33398 11.8618 5.33398 6.51819C5.33398 6.20386 5.45885 5.90241 5.68112 5.68014C5.90338 5.45788 6.20484 5.33301 6.51917 5.33301H10.6673C10.9816 5.33301 11.2831 5.45788 11.5054 5.68014C11.7276 5.90241 11.8525 6.20386 11.8525 6.51819C11.8525 7.99967 12.0895 9.4219 12.5281 10.7493C12.6584 11.1641 12.5636 11.6263 12.2318 11.9582L9.62435 14.5656Z" fill="white"/>
</g>
</svg>
