<svg width="121" height="68" viewBox="0 0 121 68" fill="none" xmlns="http://www.w3.org/2000/svg">
<path d="M4.37015 67.6603C3.77587 67.6699 3.18581 67.5588 2.63575 67.3336C2.08569 67.1084 1.58708 66.7739 1.17015 66.3503C-0.0398462 65.1403 0.000153836 63.6503 0.000153836 61.5903C0.000153836 59.5303 0.000153899 58.0303 1.17015 56.8303C1.58961 56.4121 2.08935 56.0831 2.63929 55.8631C3.18923 55.6432 3.778 55.5367 4.37015 55.5503C5.44679 55.4959 6.50327 55.8565 7.32188 56.5579C8.1405 57.2593 8.65886 58.248 8.77015 59.3203H6.42015C6.34565 58.8452 6.10247 58.4129 5.73516 58.1025C5.36785 57.7921 4.901 57.6245 4.42015 57.6303C4.14151 57.6179 3.86357 57.6671 3.60606 57.7742C3.34854 57.8814 3.11778 58.0439 2.93015 58.2503C2.47015 58.7503 2.34015 59.3203 2.34015 61.6203C2.34015 63.9203 2.47015 64.4903 2.93015 64.9903C3.11757 65.1793 3.3426 65.3268 3.59066 65.4233C3.83873 65.5197 4.1043 65.563 4.37015 65.5503C4.85101 65.5561 5.31785 65.3885 5.68516 65.0781C6.05247 64.7677 6.29565 64.3354 6.37015 63.8603H8.74016C8.63389 64.9316 8.12221 65.9218 7.30984 66.6282C6.49747 67.3346 5.44583 67.7038 4.37015 67.6603Z" fill="#07070B"/>
<path d="M10.8008 67.5601V55.6201H18.6608V57.7001H13.1308V60.5001H17.8408V62.5801H13.1308V65.4801H18.6608V67.5601H10.8008Z" fill="#07070B"/>
<path d="M25.5792 55.6204C26.0907 55.5828 26.6044 55.6512 27.0882 55.8211C27.5721 55.991 28.0157 56.2589 28.3913 56.608C28.767 56.9572 29.0666 57.38 29.2715 57.8501C29.4764 58.3202 29.5822 58.8275 29.5822 59.3404C29.5822 59.8532 29.4764 60.3605 29.2715 60.8306C29.0666 61.3007 28.767 61.7236 28.3913 62.0727C28.0157 62.4218 27.5721 62.6897 27.0882 62.8596C26.6044 63.0295 26.0907 63.0979 25.5792 63.0604H23.2792V67.5504H20.9492V55.6204H25.5792ZM25.4592 60.9704C25.6847 60.988 25.9114 60.9588 26.125 60.8847C26.3386 60.8105 26.5346 60.6929 26.7007 60.5394C26.8667 60.3859 26.9992 60.1996 27.0898 59.9924C27.1804 59.7852 27.2272 59.5615 27.2272 59.3354C27.2272 59.1092 27.1804 58.8855 27.0898 58.6783C26.9992 58.4711 26.8667 58.2849 26.7007 58.1313C26.5346 57.9778 26.3386 57.8602 26.125 57.786C25.9114 57.7119 25.6847 57.6827 25.4592 57.7004H23.2792V60.9704H25.4592Z" fill="#07070B"/>
<path d="M39.7305 62.0801C39.9845 62.3571 40.1807 62.682 40.3078 63.0357C40.4348 63.3894 40.4902 63.7648 40.4705 64.1401C40.4705 66.2301 39.0605 67.5601 36.8105 67.5601H31.8105V55.6201H36.6005C38.8505 55.6201 40.2905 56.8901 40.2905 58.9101C40.3146 59.4285 40.1887 59.9428 39.928 60.3915C39.6673 60.8402 39.2828 61.2043 38.8205 61.4401C39.1576 61.5959 39.4627 61.8129 39.7205 62.0801H39.7305ZM36.4205 60.4501C36.611 60.4664 36.8027 60.4429 36.9836 60.3812C37.1645 60.3195 37.3305 60.2208 37.4713 60.0916C37.6121 59.9623 37.7245 59.8052 37.8013 59.6302C37.8782 59.4553 37.9179 59.2662 37.9179 59.0751C37.9179 58.884 37.8782 58.695 37.8013 58.52C37.7245 58.345 37.6121 58.1879 37.4713 58.0587C37.3305 57.9294 37.1645 57.8308 36.9836 57.7691C36.8027 57.7073 36.611 57.6839 36.4205 57.7001H34.1505V60.4501H36.4205ZM36.5705 65.4501C36.9604 65.4501 37.3343 65.2952 37.61 65.0196C37.8857 64.7439 38.0405 64.37 38.0405 63.9801C38.0405 63.5902 37.8857 63.2164 37.61 62.9407C37.3343 62.665 36.9604 62.5101 36.5705 62.5101H34.1505V65.4501H36.5705Z" fill="#07070B"/>
<path d="M49.9097 67.5601V59.9001L45.2597 67.5601H43.1797V55.6201H45.5197V63.2701L50.1597 55.6201H52.2397V67.5601H49.9097Z" fill="#07070B"/>
<path d="M59.0209 67.6603C58.4233 67.6727 57.8294 67.5629 57.2757 67.3376C56.722 67.1123 56.2202 66.7764 55.8009 66.3503C54.6009 65.1403 54.6309 63.6503 54.6309 61.5903C54.6309 59.5303 54.6309 58.0303 55.8009 56.8303C56.2227 56.4096 56.7257 56.0792 57.2793 55.8592C57.8329 55.6391 58.4254 55.534 59.0209 55.5503C60.0976 55.4959 61.154 55.8565 61.9727 56.5579C62.7913 57.2593 63.3096 58.248 63.4209 59.3203H61.0509C60.9764 58.8452 60.7332 58.4129 60.3659 58.1025C59.9986 57.7921 59.5318 57.6245 59.0509 57.6303C58.7723 57.6179 58.4943 57.6671 58.2368 57.7742C57.9793 57.8814 57.7486 58.0439 57.5609 58.2503C57.1009 58.7503 56.9709 59.3203 56.9709 61.6203C56.9709 63.9203 57.1009 64.4903 57.5609 64.9903C57.7486 65.1967 57.9793 65.3592 58.2368 65.4664C58.4943 65.5735 58.7723 65.6226 59.0509 65.6103C59.5318 65.6161 59.9986 65.4485 60.3659 65.1381C60.7332 64.8277 60.9764 64.3954 61.0509 63.9203H63.4209C63.3073 64.9916 62.7883 65.9788 61.9702 66.6798C61.1521 67.3807 60.097 67.7423 59.0209 67.6903" fill="#07070B"/>
<path d="M71.5605 57.7001V67.5601H69.2305V55.6201H76.7405V57.7001H71.5605Z" fill="#07070B"/>
<path d="M83.2198 55.6204C83.7313 55.5828 84.245 55.6512 84.7288 55.8211C85.2127 55.991 85.6563 56.2589 86.032 56.608C86.4076 56.9572 86.7073 57.38 86.9121 57.8501C87.117 58.3202 87.2228 58.8275 87.2228 59.3404C87.2228 59.8532 87.117 60.3605 86.9121 60.8306C86.7073 61.3007 86.4076 61.7236 86.032 62.0727C85.6563 62.4218 85.2127 62.6897 84.7288 62.8596C84.245 63.0295 83.7313 63.0979 83.2198 63.0604H80.9198V67.5504H78.5898V55.6204H83.2198ZM83.0998 60.9704C83.3253 60.988 83.552 60.9588 83.7656 60.8847C83.9793 60.8105 84.1753 60.6929 84.3413 60.5394C84.5073 60.3859 84.6398 60.1996 84.7304 59.9924C84.821 59.7852 84.8678 59.5615 84.8678 59.3354C84.8678 59.1092 84.821 58.8855 84.7304 58.6783C84.6398 58.4711 84.5073 58.2849 84.3413 58.1313C84.1753 57.9778 83.9793 57.8602 83.7656 57.786C83.552 57.7119 83.3253 57.6827 83.0998 57.7004H80.9198V60.9704H83.0998Z" fill="#07070B"/>
<path d="M93.8507 65.5501C93.6701 66.1186 93.3169 66.6166 92.8402 66.975C92.3635 67.3335 91.7869 67.5345 91.1907 67.5501H89.7607V65.4801H90.7007C90.9602 65.5025 91.22 65.4419 91.4429 65.3071C91.6657 65.1723 91.84 64.9703 91.9407 64.7301L92.2907 63.9001L88.4707 55.6201H90.9007L93.4007 61.3701L95.6607 55.6201H98.0807L93.8507 65.5501Z" fill="#07070B"/>
<path d="M106.241 67.5601V57.7001H102.201V67.5601H99.8711V55.6201H108.571V67.5601H106.241Z" fill="#07070B"/>
<path d="M117.729 67.5601V57.7001H113.689V67.5601H111.359V55.6201H120.059V67.5601H117.729Z" fill="#07070B"/>
<path d="M31.6903 48.7303L29.4703 41.6003H14.7303L12.3703 48.7303H0.0703125L17.4903 0.820312H26.5803L44.0103 48.7303H31.6903ZM22.3703 18.9903L18.0303 31.7803H26.3703L22.3703 18.9903Z" fill="#07070B"/>
<path d="M108.13 0.820312L97.3701 21.9503L86.5901 0.820312H73.0101V11.3203H52.0801V17.9203H60.0801C70.0801 17.9203 76.0801 24.3803 76.0801 33.3203C76.0801 42.2603 70.1501 48.7303 60.0801 48.7303H86.7901V25.7903L93.5801 37.6303H101.12L107.92 25.7903V48.7303H119.69V0.820312H108.13Z" fill="#07070B"/>
<path d="M64.3701 33.3203C64.4071 32.6801 64.3094 32.0393 64.0831 31.4393C63.8568 30.8393 63.507 30.2935 63.0564 29.8373C62.6058 29.3811 62.0644 29.0245 61.4673 28.7907C60.8702 28.557 60.2307 28.4512 59.5901 28.4803H52.0801V38.1703H59.5501C60.1948 38.2053 60.8397 38.1036 61.4424 37.8718C62.045 37.6401 62.5919 37.2835 63.047 36.8255C63.5022 36.3675 63.8554 35.8185 64.0834 35.2144C64.3114 34.6103 64.4091 33.9648 64.3701 33.3203Z" fill="#07070B"/>
</svg>
