<svg width="24" height="24" viewBox="0 0 24 24" fill="none" xmlns="http://www.w3.org/2000/svg">
<path fill-rule="evenodd" clip-rule="evenodd" d="M6.28272 0C2.81287 0 0 2.81287 0 6.28272V17.7173C1.26327e-07 21.1871 2.81287 24 6.28272 24H17.7173C21.1871 24 24 21.1871 24 17.7173V6.28272C24 2.81287 21.1871 -1.26327e-07 17.7173 0H6.28272ZM20.4725 5.42679C20.4725 6.53715 19.5724 7.43726 18.462 7.43726C17.3517 7.43726 16.4516 6.53715 16.4516 5.42679C16.4516 4.31644 17.3517 3.41632 18.462 3.41632C19.5724 3.41632 20.4725 4.31644 20.4725 5.42679ZM16.9634 12.0628C16.9634 14.8387 14.7131 17.089 11.9372 17.089C9.16129 17.089 6.91099 14.8387 6.91099 12.0628C6.91099 9.28695 9.16129 7.03665 11.9372 7.03665C14.7131 7.03665 16.9634 9.28695 16.9634 12.0628Z" fill="white"/>
</svg>
