<svg width="91" height="51" viewBox="0 0 91 51" fill="none" xmlns="http://www.w3.org/2000/svg">
<path d="M3.31237 50.7552C2.86193 50.7625 2.41469 50.6782 1.99777 50.5075C1.58085 50.3369 1.20293 50.0833 0.886922 49.7622C-0.0302015 48.8451 0.000116601 47.7158 0.000116601 46.1544C0.000116601 44.593 0.000116648 43.4561 0.886922 42.5465C1.20485 42.2295 1.58363 41.9802 2.00046 41.8135C2.41729 41.6467 2.86355 41.5661 3.31237 41.5763C4.12841 41.5351 4.92917 41.8085 5.54965 42.3401C6.17012 42.8717 6.56301 43.6211 6.64737 44.4338H4.86618C4.80971 44.0737 4.62539 43.746 4.34698 43.5108C4.06858 43.2755 3.71473 43.1485 3.35027 43.1529C3.13907 43.1435 2.9284 43.1808 2.73322 43.262C2.53804 43.3432 2.36313 43.4664 2.22092 43.6228C1.87226 44.0018 1.77373 44.4338 1.77373 46.1771C1.77373 47.9204 1.87226 48.3524 2.22092 48.7314C2.36297 48.8747 2.53353 48.9865 2.72155 49.0596C2.90958 49.1327 3.11086 49.1655 3.31237 49.1559C3.67684 49.1603 4.03068 49.0332 4.30908 48.798C4.58749 48.5627 4.77181 48.235 4.82828 47.8749H6.62463C6.54409 48.6869 6.15626 49.4374 5.54052 49.9729C4.92478 50.5083 4.12768 50.7881 3.31237 50.7552Z" fill="white"/>
<path d="M8.18555 50.6789V41.6289H14.1431V43.2055H9.95158V45.3277H13.5215V46.9043H9.95158V49.1023H14.1431V50.6789H8.18555Z" fill="white"/>
<path d="M19.3882 41.6292C19.7759 41.6007 20.1652 41.6525 20.532 41.7813C20.8987 41.9101 21.235 42.1132 21.5197 42.3778C21.8044 42.6424 22.0315 42.9629 22.1868 43.3192C22.3421 43.6755 22.4223 44.06 22.4223 44.4487C22.4223 44.8374 22.3421 45.222 22.1868 45.5783C22.0315 45.9346 21.8044 46.2551 21.5197 46.5197C21.235 46.7843 20.8987 46.9874 20.532 47.1162C20.1652 47.245 19.7759 47.2968 19.3882 47.2683H17.6449V50.6715H15.8789V41.6292H19.3882ZM19.2973 45.6842C19.4682 45.6976 19.64 45.6755 19.8019 45.6193C19.9638 45.563 20.1124 45.474 20.2382 45.3576C20.3641 45.2412 20.4645 45.1 20.5332 44.943C20.6019 44.7859 20.6373 44.6164 20.6373 44.445C20.6373 44.2735 20.6019 44.104 20.5332 43.9469C20.4645 43.7899 20.3641 43.6487 20.2382 43.5323C20.1124 43.416 19.9638 43.3269 19.8019 43.2707C19.64 43.2144 19.4682 43.1923 19.2973 43.2057H17.6449V45.6842H19.2973Z" fill="white"/>
<path d="M30.1143 46.5253C30.3068 46.7353 30.4555 46.9815 30.5518 47.2496C30.6481 47.5176 30.6901 47.8022 30.6752 48.0867C30.6752 49.6708 29.6065 50.6789 27.9011 50.6789H24.1113V41.6289H27.7419C29.4473 41.6289 30.5388 42.5915 30.5388 44.1226C30.557 44.5155 30.4616 44.9053 30.264 45.2454C30.0664 45.5855 29.7749 45.8614 29.4246 46.0402C29.68 46.1583 29.9113 46.3228 30.1067 46.5253H30.1143ZM27.6055 45.2898C27.7498 45.3021 27.8951 45.2843 28.0322 45.2376C28.1693 45.1908 28.2952 45.116 28.4019 45.0181C28.5086 44.9201 28.5938 44.801 28.6521 44.6684C28.7103 44.5358 28.7404 44.3925 28.7404 44.2476C28.7404 44.1028 28.7103 43.9595 28.6521 43.8269C28.5938 43.6943 28.5086 43.5752 28.4019 43.4772C28.2952 43.3792 28.1693 43.3045 28.0322 43.2577C27.8951 43.2109 27.7498 43.1931 27.6055 43.2055H25.8849V45.2898H27.6055ZM27.7192 49.0796C28.0147 49.0796 28.2981 48.9622 28.507 48.7532C28.716 48.5443 28.8334 48.2609 28.8334 47.9654C28.8334 47.6699 28.716 47.3865 28.507 47.1775C28.2981 46.9686 28.0147 46.8512 27.7192 46.8512H25.8849V49.0796H27.7192Z" fill="white"/>
<path d="M37.8295 50.6789V44.8729L34.3051 50.6789H32.7285V41.6289H34.5021V47.4272L38.019 41.6289H39.5956V50.6789H37.8295Z" fill="white"/>
<path d="M44.7357 50.7552C44.2827 50.7645 43.8326 50.6813 43.4129 50.5106C42.9932 50.3398 42.6128 50.0852 42.2951 49.7622C41.3855 48.8451 41.4083 47.7158 41.4083 46.1544C41.4083 44.593 41.4083 43.4561 42.2951 42.5465C42.6148 42.2277 42.996 41.9772 43.4156 41.8104C43.8352 41.6436 44.2843 41.564 44.7357 41.5763C45.5517 41.5351 46.3525 41.8085 46.9729 42.3401C47.5934 42.8717 47.9863 43.6211 48.0707 44.4338H46.2743C46.2178 44.0737 46.0335 43.746 45.7551 43.5108C45.4767 43.2755 45.1229 43.1485 44.7584 43.1529C44.5472 43.1435 44.3365 43.1808 44.1414 43.262C43.9462 43.3432 43.7713 43.4664 43.6291 43.6228C43.2804 44.0018 43.1819 44.4338 43.1819 46.1771C43.1819 47.9204 43.2804 48.3524 43.6291 48.7314C43.7713 48.8878 43.9462 49.011 44.1414 49.0922C44.3365 49.1735 44.5472 49.2107 44.7584 49.2013C45.1229 49.2057 45.4767 49.0787 45.7551 48.8434C46.0335 48.6082 46.2178 48.2805 46.2743 47.9204H48.0707C47.9845 48.7324 47.5911 49.4807 46.9711 50.012C46.351 50.5432 45.5513 50.8173 44.7357 50.7779" fill="white"/>
<path d="M54.2387 43.2055V50.6789H52.4727V41.6289H58.1649V43.2055H54.2387Z" fill="white"/>
<path d="M63.0777 41.6292C63.4653 41.6007 63.8547 41.6525 64.2214 41.7813C64.5882 41.9101 64.9244 42.1132 65.2091 42.3778C65.4939 42.6424 65.721 42.9629 65.8763 43.3192C66.0316 43.6755 66.1117 44.06 66.1117 44.4487C66.1117 44.8374 66.0316 45.222 65.8763 45.5783C65.721 45.9346 65.4939 46.2551 65.2091 46.5197C64.9244 46.7843 64.5882 46.9874 64.2214 47.1162C63.8547 47.245 63.4653 47.2968 63.0777 47.2683H61.3344V50.6715H59.5684V41.6292H63.0777ZM62.9867 45.6842C63.1576 45.6976 63.3294 45.6755 63.4914 45.6193C63.6533 45.563 63.8018 45.474 63.9277 45.3576C64.0535 45.2412 64.154 45.1 64.2226 44.943C64.2913 44.7859 64.3268 44.6164 64.3268 44.445C64.3268 44.2735 64.2913 44.104 64.2226 43.9469C64.154 43.7899 64.0535 43.6487 63.9277 43.5323C63.8018 43.416 63.6533 43.3269 63.4914 43.2707C63.3294 43.2144 63.1576 43.1923 62.9867 43.2057H61.3344V45.6842H62.9867Z" fill="white"/>
<path d="M71.1344 49.1554C70.9976 49.5862 70.7298 49.9637 70.3685 50.2354C70.0072 50.5071 69.5702 50.6594 69.1183 50.6713H68.0344V49.1023H68.7469C68.9435 49.1193 69.1405 49.0734 69.3094 48.9712C69.4783 48.869 69.6104 48.7159 69.6867 48.5339L69.952 47.9048L67.0566 41.6289H68.8985L70.7934 45.9871L72.5063 41.6289H74.3406L71.1344 49.1554Z" fill="white"/>
<path d="M80.5254 50.6789V43.2055H77.4633V50.6789H75.6973V41.6289H82.2915V50.6789H80.5254Z" fill="white"/>
<path d="M89.2325 50.6789V43.2055H86.1703V50.6789H84.4043V41.6289H90.9985V50.6789H89.2325Z" fill="white"/>
<path d="M24.0192 36.4068L22.3366 31.0026H11.1643L9.37556 36.4068H0.0527344L13.2563 0.0932617H20.1461L33.3572 36.4068H24.0192ZM16.9551 13.8653L13.6656 23.5595H19.9869L16.9551 13.8653Z" fill="white"/>
<path d="M81.9579 0.0932617L73.8023 16.1088L65.6316 0.0932617H55.3386V8.05177H39.4746V13.0543H45.5382C53.1178 13.0543 57.6655 17.9506 57.6655 24.7267C57.6655 31.5028 53.1708 36.4068 45.5382 36.4068H65.7832V19.0194L70.9297 27.9935H76.6446L81.7987 19.0194V36.4068H90.7198V0.0932617H81.9579Z" fill="white"/>
<path d="M48.7899 24.7268C48.8179 24.2415 48.7438 23.7558 48.5723 23.3011C48.4008 22.8463 48.1357 22.4326 47.7942 22.0868C47.4526 21.741 47.0423 21.4707 46.5897 21.2936C46.1371 21.1164 45.6524 21.0362 45.1668 21.0583H39.4746V28.4028H45.1365C45.6252 28.4294 46.114 28.3523 46.5708 28.1766C47.0276 28.0009 47.4421 27.7307 47.787 27.3835C48.132 27.0364 48.3997 26.6203 48.5725 26.1624C48.7454 25.7045 48.8194 25.2153 48.7899 24.7268Z" fill="white"/>
</svg>
